<?xml version="1.0" encoding="UTF-8" standalone="no"?>
<!-- Created with Inkscape (http://www.inkscape.org/) -->

<svg
   version="1.1"
   id="svg2"
   xml:space="preserve"
   width="105.4392"
   height="30.666668"
   viewBox="0 0 105.4392 30.666668"
   sodipodi:docname="제브리띵_colored_logo_ai.ai"
   xmlns:inkscape="http://www.inkscape.org/namespaces/inkscape"
   xmlns:sodipodi="http://sodipodi.sourceforge.net/DTD/sodipodi-0.dtd"
   xmlns="http://www.w3.org/2000/svg"
   xmlns:svg="http://www.w3.org/2000/svg"><defs
     id="defs6"><clipPath
       clipPathUnits="userSpaceOnUse"
       id="clipPath16"><path
         d="M 0,23 H 79.079 V 0 H 0 Z"
         id="path14" /></clipPath></defs><sodipodi:namedview
     id="namedview4"
     pagecolor="#ffffff"
     bordercolor="#666666"
     borderopacity="1.0"
     inkscape:pageshadow="2"
     inkscape:pageopacity="0.0"
     inkscape:pagecheckerboard="0" /><g
     id="g8"
     inkscape:groupmode="layer"
     inkscape:label="제브리띵_colored_logo_ai"
     transform="matrix(1.3333333,0,0,-1.3333333,0,30.666667)"><g
       id="g10"><g
         id="g12"
         clip-path="url(#clipPath16)"><g
           id="g18"
           transform="translate(58.4638,10.5484)"><path
             d="m 0,0 c -1.111,0 -2.223,0 -3.334,0 -0.239,0 -0.368,0.126 -0.368,0.366 -10e-4,1.557 -10e-4,3.114 0,4.671 0,0.214 0.146,0.36 0.36,0.36 1.663,0 3.327,0.002 4.991,-0.003 C 1.81,5.393 1.865,5.426 1.862,5.6 1.853,6.409 1.858,7.218 1.858,8.027 1.857,8.446 1.759,8.546 1.345,8.547 c -1.579,0 -3.158,0 -4.737,0 -0.252,0 -0.388,0.137 -0.389,0.388 0,0.115 0,0.231 0,0.346 0.001,0.25 0.138,0.387 0.39,0.387 H 1.491 C 1.748,9.669 2,9.641 2.242,9.55 2.815,9.335 3.148,8.852 3.155,8.17 3.167,6.984 3.16,5.798 3.159,4.612 c 0,-0.18 -0.163,-0.32 -0.363,-0.32 -1.651,0 -3.303,0 -4.955,0 -0.258,0 -0.258,0 -0.258,-0.25 0,-0.913 0.004,-1.826 -0.003,-2.738 -10e-4,-0.147 0.044,-0.181 0.184,-0.181 1.853,0.004 3.705,0.003 5.557,0.003 0.273,0 0.394,-0.122 0.394,-0.395 0,-0.121 0,-0.243 0,-0.364 C 3.714,0.126 3.59,0 3.352,0 2.234,0 1.117,0 0,0"
             style="fill:#feac37;fill-opacity:1;fill-rule:nonzero;stroke:none"
             id="path20" /></g><g
           id="g22"
           transform="translate(71.8921,14.2828)"><path
             d="m 0,0 h -3.717 c -0.246,0 -0.382,0.133 -0.382,0.374 v 5.438 c 0,0.242 0.136,0.377 0.378,0.377 0.971,0.001 1.943,0.001 2.915,0 0.236,0 0.379,-0.143 0.38,-0.379 V 5.445 C -0.427,5.201 -0.559,5.068 -0.802,5.068 -1.416,5.068 -2.029,5.066 -2.643,5.07 -2.757,5.071 -2.8,5.044 -2.799,4.92 c 0.004,-1.217 0.004,-2.434 0,-3.65 -10e-4,-0.124 0.042,-0.151 0.156,-0.151 0.723,0.005 1.446,0.007 2.168,-10e-4 0.155,-0.002 0.176,0.055 0.176,0.188 -0.004,1.485 -0.003,2.969 -0.003,4.453 0,0.307 0.121,0.43 0.421,0.43 1.166,0.001 2.332,0.001 3.498,0 0.247,0 0.374,-0.128 0.375,-0.376 0,-0.127 0,-0.255 0,-0.383 C 3.991,5.196 3.861,5.068 3.623,5.068 2.803,5.068 1.982,5.066 1.163,5.071 1.04,5.072 0.997,5.044 0.997,4.912 1.002,3.701 1.002,2.491 0.997,1.28 0.997,1.15 1.034,1.118 1.16,1.119 2.023,1.124 2.885,1.122 3.748,1.121 3.974,1.121 4.12,0.979 4.121,0.755 4.122,0.634 4.122,0.512 4.121,0.391 4.121,0.137 3.986,0 3.735,0 Z"
             style="fill:#feac37;fill-opacity:1;fill-rule:nonzero;stroke:none"
             id="path24" /></g><g
           id="g26"
           transform="translate(29.0586,13.2389)"><path
             d="m 0,0 c -0.196,-0.276 -0.373,-0.536 -0.561,-0.786 -0.497,-0.663 -1.045,-1.28 -1.656,-1.841 -0.165,-0.153 -0.35,-0.138 -0.498,0.034 -0.155,0.179 -0.303,0.365 -0.464,0.538 -0.087,0.094 -0.082,0.148 0.012,0.232 0.844,0.755 1.545,1.632 2.164,2.575 0.16,0.244 0.301,0.5 0.44,0.756 0.214,0.396 0.326,0.81 0.313,1.272 -0.024,0.93 -0.01,1.862 -0.004,2.793 0.001,0.142 -0.036,0.186 -0.182,0.184 -0.631,-0.008 -1.263,-0.004 -1.895,-0.004 -0.273,0 -0.402,0.133 -0.402,0.412 0,0.115 -10e-4,0.231 0,0.347 10e-4,0.238 0.129,0.367 0.366,0.367 h 5.485 c 0.248,0 0.371,-0.125 0.371,-0.378 0,-0.122 0,-0.243 0,-0.365 C 3.488,5.88 3.36,5.753 3.1,5.753 2.48,5.753 1.86,5.751 1.241,5.756 1.126,5.756 1.083,5.73 1.083,5.605 1.088,4.218 1.082,2.831 1.09,1.444 1.093,1.055 1.153,0.669 1.275,0.296 1.573,-0.619 2.251,-1.123 3.22,-1.15 c 0.109,-0.004 0.218,-0.001 0.328,-0.002 0.197,-0.003 0.336,-0.142 0.338,-0.34 10e-4,-0.14 0,-0.279 0,-0.42 0,-0.273 -0.132,-0.398 -0.41,-0.403 C 2.564,-2.336 1.734,-2.11 1.02,-1.522 0.602,-1.179 0.299,-0.752 0.099,-0.252 0.068,-0.176 0.039,-0.099 0,0"
             style="fill:#feac37;fill-opacity:1;fill-rule:nonzero;stroke:none"
             id="path28" /></g><g
           id="g30"
           transform="translate(35.4814,14.5162)"><path
             d="m 0,0 v -5.565 c 0,-0.285 -0.123,-0.41 -0.401,-0.41 h -0.493 c -0.271,0 -0.392,0.123 -0.392,0.397 0,2.026 -0.002,4.052 0.004,6.077 0.001,0.176 -0.042,0.224 -0.219,0.221 -0.68,-0.011 -1.36,-0.005 -2.041,-0.004 -0.227,0 -0.37,0.143 -0.371,0.368 -0.001,0.165 -0.001,0.329 -0.001,0.493 0.001,0.265 0.134,0.4 0.396,0.4 0.674,0 1.349,0.005 2.022,-0.003 0.162,-0.003 0.216,0.034 0.215,0.207 -0.009,1.144 -0.005,2.287 -0.005,3.431 0,0.261 0.126,0.389 0.383,0.389 h 0.51 C -0.127,6.001 0,5.873 0,5.602 Z"
             style="fill:#feac37;fill-opacity:1;fill-rule:nonzero;stroke:none"
             id="path32" /></g><g
           id="g34"
           transform="translate(36.8925,14.4552)"><path
             d="m 0,0 c 0,1.904 0,3.808 0,5.712 0,0.273 0.12,0.392 0.396,0.392 0.17,0 0.34,0 0.51,0 0.254,0 0.38,-0.123 0.38,-0.373 0,-3.82 0,-7.64 0,-11.46 0,-0.229 -0.14,-0.366 -0.371,-0.367 -0.176,-0.001 -0.352,0 -0.528,0 C 0.125,-6.096 0,-5.972 0,-5.711 0,-3.808 0,-1.904 0,0"
             style="fill:#feac37;fill-opacity:1;fill-rule:nonzero;stroke:none"
             id="path36" /></g><g
           id="g38"
           transform="translate(63.7841,14.5274)"><path
             d="m 0,0 v 5.655 c 0,0.272 0.125,0.399 0.392,0.4 H 0.901 C 1.166,6.054 1.302,5.92 1.302,5.659 V -5.687 c 0,-0.266 -0.132,-0.398 -0.396,-0.398 -0.177,-0.001 -0.352,-0.001 -0.529,0 C 0.133,-6.085 0,-5.953 0,-5.71 0,-3.807 0,-1.903 0,0"
             style="fill:#feac37;fill-opacity:1;fill-rule:nonzero;stroke:none"
             id="path40" /></g><g
           id="g42"
           transform="translate(46.4497,9.9019)"><path
             d="m 0,0 h -5.864 c -0.265,0 -0.386,0.121 -0.387,0.382 0,0.14 0,0.28 0,0.42 0.001,0.25 0.125,0.376 0.375,0.376 3.928,0.001 7.855,0.001 11.783,0 0.228,0 0.363,-0.139 0.364,-0.372 0,-0.14 0,-0.28 0,-0.42 C 6.271,0.132 6.138,0 5.882,0 Z"
             style="fill:#feac37;fill-opacity:1;fill-rule:nonzero;stroke:none"
             id="path44" /></g><g
           id="g46"
           transform="translate(77.5674,17.0108)"><path
             d="m 0,0 c 0,1.095 0,2.189 0,3.284 0,0.255 0.133,0.389 0.386,0.39 0.17,0 0.34,0 0.51,0 C 1.173,3.673 1.302,3.545 1.302,3.268 V -3.28 c 0,-0.256 -0.132,-0.389 -0.385,-0.39 -0.176,-10e-4 -0.352,0 -0.528,0 C 0.135,-3.67 0,-3.537 0,-3.283 0,-2.189 0,-1.094 0,0"
             style="fill:#feac37;fill-opacity:1;fill-rule:nonzero;stroke:none"
             id="path48" /></g><g
           id="g50"
           transform="translate(73.7651,3.506)"><path
             d="m 0,0 v 0.924 c 0,0.73 0.003,1.46 -0.002,2.189 -0.001,0.169 0.05,0.248 0.229,0.242 0.221,-0.007 0.279,-0.045 0.279,-0.238 0.001,-1.302 0,-2.603 0.002,-3.905 0,-0.148 -0.065,-0.193 -0.209,-0.207 -0.206,-0.02 -0.328,0.058 -0.443,0.227 -0.67,0.991 -1.35,1.975 -2.028,2.96 C -2.201,2.234 -2.216,2.293 -2.281,2.311 -2.318,2.248 -2.298,2.181 -2.298,2.118 -2.3,1.164 -2.3,0.209 -2.299,-0.746 c 0,-0.086 0.015,-0.19 -0.08,-0.223 -0.12,-0.042 -0.252,-0.042 -0.374,0.003 -0.059,0.022 -0.053,0.089 -0.053,0.145 0,1.325 0,2.651 -10e-4,3.977 -10e-4,0.139 0.061,0.188 0.197,0.2 0.188,0.017 0.303,-0.043 0.413,-0.208 0.713,-1.057 1.439,-2.104 2.161,-3.154 C -0.024,-0.004 -0.012,-0.002 0,0"
             style="fill:#fec97e;fill-opacity:1;fill-rule:nonzero;stroke:none"
             id="path52" /></g><g
           id="g54"
           transform="translate(78.4741,3.7896)"><path
             d="m 0,0 c 0,-0.31 0,-0.62 0,-0.931 0,-0.074 0.003,-0.137 -0.094,-0.168 -0.631,-0.2 -1.271,-0.315 -1.933,-0.216 -0.709,0.106 -1.107,0.551 -1.246,1.226 -0.139,0.672 -0.142,1.352 0.026,2.023 0.167,0.665 0.667,1.088 1.351,1.135 C -1.33,3.107 -0.769,3.061 -0.221,2.905 -0.017,2.847 0,2.802 -0.084,2.534 -0.131,2.383 -0.23,2.395 -0.358,2.432 -0.875,2.579 -1.399,2.656 -1.937,2.566 -2.353,2.498 -2.604,2.24 -2.731,1.853 -2.783,1.698 -2.829,1.536 -2.837,1.375 -2.859,0.932 -2.885,0.488 -2.777,0.05 c 0.155,-0.631 0.507,-0.911 1.151,-0.922 0.33,-0.006 0.652,0.039 0.973,0.109 0.111,0.024 0.146,0.076 0.144,0.187 -0.006,0.359 -0.007,0.718 0.001,1.076 0.002,0.126 -0.033,0.171 -0.163,0.167 -0.291,-0.009 -0.583,-0.003 -0.874,-0.002 -0.215,0 -0.234,0.028 -0.243,0.243 -0.006,0.172 0.058,0.24 0.233,0.237 0.45,-0.008 0.899,-0.008 1.348,10e-4 C -0.044,1.148 0.006,1.087 0.002,0.931 -0.006,0.621 0,0.311 0,0"
             style="fill:#fec97e;fill-opacity:1;fill-rule:nonzero;stroke:none"
             id="path56" /></g><g
           id="g58"
           transform="translate(42.0263,4.42)"><path
             d="M 0,0 C 0,0.523 0,1.046 0,1.57 0,1.673 0.008,1.774 0.027,1.877 0.099,2.25 0.291,2.434 0.673,2.439 1.377,2.449 2.083,2.441 2.787,2.445 2.983,2.446 2.948,2.31 2.953,2.191 2.958,2.066 2.954,1.962 2.779,1.963 2.16,1.969 1.54,1.966 0.92,1.965 0.583,1.965 0.515,1.899 0.512,1.561 0.509,1.281 0.518,1 0.508,0.721 0.503,0.585 0.543,0.544 0.681,0.545 1.337,0.552 1.993,0.544 2.649,0.552 2.823,0.554 2.891,0.502 2.881,0.322 2.869,0.099 2.855,0.071 2.647,0.071 1.992,0.07 1.335,0.066 0.68,0.074 0.541,0.075 0.505,0.032 0.508,-0.103 c 0.008,-0.376 0.01,-0.754 0,-1.131 -0.004,-0.148 0.033,-0.198 0.189,-0.196 0.699,0.008 1.397,0.004 2.095,0.003 0.225,0 0.234,-0.01 0.234,-0.24 0,-0.229 -0.008,-0.238 -0.235,-0.238 -0.851,0 -1.701,-10e-4 -2.551,0 C 0.025,-1.905 0,-1.879 0,-1.661 0,-1.107 0,-0.554 0,0"
             style="fill:#fec97e;fill-opacity:1;fill-rule:nonzero;stroke:none"
             id="path60" /></g><g
           id="g62"
           transform="translate(49.7895,4.4176)"><path
             d="M 0,0 V 1.57 C 0,1.673 0.007,1.774 0.027,1.877 0.097,2.241 0.271,2.43 0.634,2.438 1.357,2.455 2.08,2.447 2.803,2.445 3.017,2.444 2.938,2.272 2.952,2.159 2.967,2.035 2.923,1.965 2.781,1.966 2.162,1.97 1.542,1.968 0.923,1.968 0.583,1.968 0.515,1.902 0.512,1.565 0.509,1.292 0.519,1.018 0.508,0.744 0.502,0.596 0.541,0.545 0.697,0.547 1.341,0.556 1.985,0.551 2.628,0.551 2.869,0.551 2.877,0.542 2.878,0.328 2.879,0.095 2.858,0.073 2.632,0.073 1.982,0.073 1.332,0.069 0.682,0.076 0.546,0.077 0.504,0.04 0.508,-0.098 0.517,-0.481 0.518,-0.864 0.507,-1.248 0.503,-1.399 0.557,-1.428 0.694,-1.427 1.399,-1.421 2.104,-1.43 2.808,-1.42 2.996,-1.418 3.031,-1.498 3.03,-1.662 3.029,-1.823 3.003,-1.908 2.812,-1.906 1.949,-1.898 1.086,-1.9 0.224,-1.905 0.059,-1.906 -0.003,-1.844 -0.002,-1.679 0.003,-1.12 0,-0.56 0,0"
             style="fill:#fec97e;fill-opacity:1;fill-rule:nonzero;stroke:none"
             id="path64" /></g><g
           id="g66"
           transform="translate(29.2334,4.4259)"><path
             d="m 0,0 c 0,0.517 0,1.034 0,1.551 0,0.11 0.007,0.218 0.028,0.326 0.069,0.362 0.26,0.55 0.633,0.556 0.71,0.011 1.421,0.004 2.131,0.005 0.214,0 0.149,-0.161 0.161,-0.277 C 2.966,2.03 2.925,1.957 2.773,1.958 2.154,1.962 1.534,1.96 0.915,1.959 0.586,1.959 0.516,1.892 0.512,1.567 0.508,1.281 0.519,0.995 0.508,0.709 0.502,0.565 0.557,0.539 0.687,0.54 1.331,0.546 1.975,0.543 2.619,0.542 2.871,0.542 2.878,0.536 2.878,0.311 2.878,0.083 2.859,0.064 2.605,0.064 1.968,0.064 1.33,0.061 0.692,0.068 0.551,0.069 0.503,0.034 0.507,-0.114 c 0.011,-0.383 0.01,-0.767 0.001,-1.15 -0.004,-0.141 0.044,-0.173 0.177,-0.171 0.704,0.006 1.409,0.003 2.113,0.002 0.217,0 0.22,-0.013 0.231,-0.245 C 3.037,-1.85 2.985,-1.916 2.804,-1.915 1.947,-1.907 1.091,-1.908 0.234,-1.914 0.062,-1.915 -0.004,-1.854 -0.002,-1.679 0.004,-1.12 0,-0.56 0,0"
             style="fill:#fec97e;fill-opacity:1;fill-rule:nonzero;stroke:none"
             id="path68" /></g><g
           id="g70"
           transform="translate(65.0971,4.6852)"><path
             d="M 0,0 C 0,0.645 0,1.29 0,1.934 0.001,2.148 0.03,2.173 0.265,2.172 0.484,2.171 0.51,2.147 0.511,1.935 0.512,1.448 0.517,0.961 0.508,0.475 0.505,0.321 0.558,0.279 0.706,0.281 1.38,0.287 2.054,0.288 2.728,0.28 2.876,0.279 2.914,0.33 2.912,0.471 2.905,0.963 2.915,1.456 2.907,1.948 2.904,2.131 2.987,2.179 3.151,2.174 3.386,2.168 3.419,2.15 3.419,1.957 3.421,0.655 3.421,-0.646 3.42,-1.948 3.419,-2.154 3.396,-2.162 3.141,-2.172 2.969,-2.18 2.903,-2.128 2.906,-1.947 c 0.01,0.53 0,1.059 0.006,1.588 0.002,0.124 -0.03,0.168 -0.161,0.167 C 2.059,-0.198 1.366,-0.199 0.674,-0.191 0.527,-0.189 0.507,-0.247 0.508,-0.373 0.514,-0.902 0.505,-1.431 0.514,-1.96 0.517,-2.138 0.441,-2.177 0.284,-2.172 0.03,-2.164 0.001,-2.151 0.001,-1.952 0,-1.301 0,-0.651 0,0"
             style="fill:#fec97e;fill-opacity:1;fill-rule:nonzero;stroke:none"
             id="path72" /></g><g
           id="g74"
           transform="translate(39.3965,5.2896)"><path
             d="m 0,0 c 0,-0.426 0.009,-0.852 -0.003,-1.277 -0.013,-0.465 -0.151,-0.882 -0.516,-1.201 -0.223,-0.194 -0.483,-0.31 -0.769,-0.345 -0.605,-0.076 -1.177,-0.017 -1.626,0.467 -0.275,0.297 -0.386,0.661 -0.392,1.051 -0.013,0.875 -0.006,1.751 -0.004,2.627 0,0.198 0.031,0.212 0.283,0.22 0.158,0.005 0.232,-0.037 0.23,-0.213 C -2.804,0.508 -2.8,-0.313 -2.8,-1.134 c 0,-0.196 0.024,-0.389 0.088,-0.573 0.129,-0.375 0.409,-0.569 0.789,-0.647 0.573,-0.118 1.109,0.123 1.307,0.604 0.079,0.193 0.104,0.399 0.104,0.606 0.002,0.815 0.001,1.63 0.001,2.445 0,0.23 0.008,0.238 0.235,0.238 C -0.022,1.54 -0.001,1.521 0,1.295 0,0.864 0,0.432 0,0"
             style="fill:#fec97e;fill-opacity:1;fill-rule:nonzero;stroke:none"
             id="path76" /></g><g
           id="g78"
           transform="translate(47.331,3.2901)"><path
             d="m 0,0 c 0.337,0.916 0.668,1.815 0.999,2.714 0.088,0.24 0.174,0.479 0.263,0.718 0.052,0.14 0.39,0.2 0.496,0.092 C 1.83,3.451 1.79,3.377 1.762,3.304 1.485,2.56 1.207,1.815 0.928,1.071 0.722,0.52 0.511,-0.03 0.313,-0.584 0.262,-0.727 0.198,-0.801 0.041,-0.776 c -0.059,0.009 -0.122,0.006 -0.182,0.001 -0.101,-0.01 -0.148,0.031 -0.184,0.128 C -0.771,0.56 -1.222,1.764 -1.671,2.969 -1.72,3.1 -1.765,3.232 -1.817,3.361 -1.843,3.424 -1.847,3.477 -1.795,3.526 -1.681,3.638 -1.353,3.569 -1.296,3.417 -0.898,2.342 -0.502,1.266 -0.105,0.19 -0.083,0.129 -0.076,0.061 0,0"
             style="fill:#fec97e;fill-opacity:1;fill-rule:nonzero;stroke:none"
             id="path80" /></g><g
           id="g82"
           transform="translate(59.164,4.8819)"><path
             d="M 0,0 C 0.37,0.588 0.735,1.147 1.077,1.721 1.194,1.918 1.323,2.011 1.553,1.98 1.732,1.955 1.778,1.886 1.68,1.73 1.256,1.049 0.835,0.367 0.404,-0.309 0.295,-0.479 0.238,-0.646 0.244,-0.852 0.257,-1.289 0.241,-1.728 0.251,-2.166 0.256,-2.353 0.161,-2.372 0.013,-2.369 c -0.149,0.004 -0.281,-0.004 -0.278,0.21 0.007,0.487 0,0.973 0.004,1.46 0.001,0.101 -0.021,0.187 -0.076,0.274 C -0.781,0.279 -1.22,0.985 -1.661,1.691 -1.703,1.758 -1.755,1.824 -1.715,1.91 -1.67,2.006 -1.58,1.967 -1.506,1.977 -1.325,2.002 -1.213,1.938 -1.114,1.77 -0.799,1.236 -0.46,0.717 -0.131,0.192 -0.096,0.136 -0.057,0.083 0,0"
             style="fill:#fec97e;fill-opacity:1;fill-rule:nonzero;stroke:none"
             id="path84" /></g><g
           id="g86"
           transform="translate(62.6123,4.4693)"><path
             d="M 0,0 C 0,0.584 -0.003,1.168 0.003,1.752 0.004,1.878 -0.03,1.922 -0.16,1.919 -0.488,1.911 -0.816,1.923 -1.144,1.914 -1.31,1.909 -1.354,1.98 -1.349,2.132 c 0.004,0.146 0.005,0.265 0.205,0.264 0.923,-0.004 1.847,-0.004 2.77,0 0.2,10e-4 0.2,-0.119 0.205,-0.264 C 1.835,1.979 1.79,1.908 1.625,1.914 1.333,1.923 1.042,1.916 0.75,1.916 c -0.239,0 -0.239,0 -0.239,-0.231 0,-1.125 0,-2.251 0,-3.377 0,-0.089 0.025,-0.204 -0.08,-0.241 C 0.312,-1.976 0.178,-1.976 0.058,-1.931 -0.018,-1.902 0,-1.818 0,-1.752 0,-1.168 0,-0.584 0,0"
             style="fill:#fec97e;fill-opacity:1;fill-rule:nonzero;stroke:none"
             id="path88" /></g><g
           id="g90"
           transform="translate(28.2426,5.0987)"><path
             d="m 0,0 c 0,-0.486 0.011,-0.973 -0.003,-1.459 -0.013,-0.459 -0.139,-0.868 -0.617,-1.062 -0.308,-0.125 -0.632,-0.114 -0.952,-0.088 -0.314,0.026 -0.62,0.106 -0.911,0.234 -0.117,0.052 -0.133,0.183 -0.047,0.373 0.048,0.106 0.121,0.112 0.223,0.071 0.323,-0.129 0.653,-0.22 1.006,-0.217 0.582,0.003 0.788,0.199 0.79,0.789 0.004,0.936 0.001,1.873 0.001,2.809 0,0.264 0.156,0.368 0.408,0.274 0.1,-0.037 0.104,-0.121 0.103,-0.21 C 0,1.009 0.001,0.504 0.001,0 Z"
             style="fill:#fec97e;fill-opacity:1;fill-rule:nonzero;stroke:none"
             id="path92" /></g><g
           id="g94"
           transform="translate(35.1313,5.0997)"><path
             d="m 0,0 c 0,-0.486 0.011,-0.973 -0.003,-1.459 -0.013,-0.459 -0.139,-0.868 -0.617,-1.062 -0.307,-0.126 -0.631,-0.115 -0.951,-0.089 -0.314,0.026 -0.62,0.106 -0.911,0.234 -0.118,0.051 -0.134,0.18 -0.049,0.372 0.048,0.106 0.12,0.113 0.223,0.072 0.322,-0.129 0.652,-0.22 1.005,-0.217 0.584,0.003 0.79,0.199 0.792,0.788 0.004,0.936 0.001,1.873 0.001,2.809 0,0.265 0.153,0.369 0.407,0.276 0.1,-0.037 0.104,-0.121 0.104,-0.21 C 0,1.009 0,0.504 0,0 Z"
             style="fill:#fec97e;fill-opacity:1;fill-rule:nonzero;stroke:none"
             id="path96" /></g><g
           id="g98"
           transform="translate(69.9819,4.6739)"><path
             d="m 0,0 c 0,-0.644 0,-1.288 0,-1.933 0,-0.217 -0.01,-0.225 -0.247,-0.225 -0.239,0 -0.264,0.02 -0.264,0.236 0,1.289 0,2.577 0,3.865 0,0.218 0.028,0.243 0.261,0.242 C -0.028,2.184 0,2.16 0,1.951 0,1.301 0,0.65 0,0"
             style="fill:#fec97e;fill-opacity:1;fill-rule:nonzero;stroke:none"
             id="path100" /></g><g
           id="g102"
           transform="translate(11.4677,0.5479)"><path
             d="m 0,0 c -6.042,0.008 -10.931,4.918 -10.92,10.97 0.009,6.045 4.902,10.936 10.938,10.934 C 6.06,21.902 10.951,16.997 10.947,10.943 10.943,4.892 6.042,-0.007 0,0 M 0.02,22.452 C -6.321,22.456 -11.463,17.312 -11.468,10.959 -11.472,4.607 -6.335,-0.544 0.006,-0.548 6.341,-0.552 11.482,4.584 11.494,10.927 11.506,17.288 6.369,22.448 0.02,22.452"
             style="fill:#feac37;fill-opacity:1;fill-rule:nonzero;stroke:none"
             id="path104" /></g><g
           id="g106"
           transform="translate(49.6582,14.191)"><path
             d="m 0,0 c -1.068,0.004 -2.137,0.002 -3.205,0.002 -1.057,0 -2.113,0.005 -3.169,-0.004 -0.183,-0.002 -0.219,0.054 -0.216,0.224 0.01,0.62 0.007,1.241 10e-4,1.861 -10e-4,0.126 0.034,0.166 0.163,0.166 C -4.283,2.245 -2.14,2.245 0.002,2.248 0.124,2.249 0.171,2.223 0.17,2.089 0.163,1.445 0.163,0.8 0.17,0.156 0.171,0.019 0.118,0 0,0 m 1.06,6.17 c -0.164,0 -0.329,0 -0.492,0 C 0.302,6.169 0.167,6.038 0.167,5.776 0.167,5.027 0.165,4.279 0.169,3.531 0.17,3.409 0.145,3.364 0.012,3.364 c -2.144,0.005 -4.288,0.005 -6.431,0 -0.142,0 -0.171,0.043 -0.17,0.176 0.006,0.742 0.003,1.484 0.003,2.226 0,0.274 -0.132,0.404 -0.41,0.404 -0.17,0 -0.34,0.001 -0.51,0 -0.224,-0.001 -0.366,-0.145 -0.366,-0.374 0,-2.178 0,-4.356 0,-6.533 0,-0.252 0.135,-0.382 0.393,-0.382 h 4.281 4.281 c 0.256,0 0.386,0.13 0.386,0.388 V 5.765 C 1.469,6.04 1.337,6.17 1.06,6.17"
             style="fill:#feac37;fill-opacity:1;fill-rule:nonzero;stroke:none"
             id="path108" /></g><g
           id="g110"
           transform="translate(77.7646,9.7257)"><path
             d="m 0,0 c -0.125,-0.47 -0.473,-0.716 -0.916,-0.852 -0.364,-0.111 -0.74,-0.135 -1.116,-0.137 -0.917,-0.006 -1.834,-0.008 -2.75,0 -0.443,0.004 -0.885,0.034 -1.305,0.203 -0.552,0.223 -0.823,0.617 -0.832,1.223 -0.011,0.685 0.247,1.123 0.804,1.36 0.287,0.123 0.591,0.189 0.902,0.194 0.297,0.005 0.594,0.005 0.892,0.005 0.298,-10e-4 0.595,-0.002 0.893,-0.002 0.45,0 0.902,0.006 1.352,0.003 0.15,-0.001 0.301,-0.004 0.451,-0.007 0.378,-0.01 0.746,-0.094 1.077,-0.295 0.258,-0.156 0.441,-0.376 0.53,-0.67 C 0.086,0.685 0.091,0.34 0,0 M 1.29,0.87 C 1.201,1.655 0.854,2.279 0.163,2.686 -0.402,3.019 -1.026,3.137 -1.668,3.156 -2.257,3.174 -2.846,3.16 -3.671,3.16 -4.241,3.136 -5.051,3.225 -5.853,3.087 -6.393,2.995 -6.899,2.822 -7.33,2.47 -7.896,2.008 -8.133,1.386 -8.17,0.678 c -0.06,-1.154 0.369,-2.164 1.664,-2.596 0.537,-0.18 1.09,-0.235 1.65,-0.24 0.953,-0.008 1.907,-0.005 2.86,-10e-4 0.437,10e-4 0.873,0.037 1.3,0.141 0.748,0.183 1.384,0.53 1.742,1.253 0.257,0.516 0.308,1.068 0.244,1.635"
             style="fill:#feac37;fill-opacity:1;fill-rule:nonzero;stroke:none"
             id="path112" /></g><g
           id="g114"
           transform="translate(55.4633,4.8199)"><path
             d="m 0,0 c -0.188,-0.002 -0.376,0 -0.564,0 -0.225,0 -0.45,0.003 -0.674,-0.002 -0.103,-0.003 -0.137,0.032 -0.136,0.135 0.005,0.359 -0.003,0.718 0.004,1.076 0.006,0.288 0.081,0.36 0.361,0.355 C -0.585,1.556 -0.16,1.593 0.263,1.535 0.661,1.48 0.839,1.287 0.849,0.883 0.865,0.207 0.673,0.007 0,0 m 1.445,-2.045 c -0.269,0.489 -0.536,0.98 -0.814,1.464 -0.069,0.123 -0.079,0.171 0.073,0.227 0.332,0.119 0.529,0.37 0.618,0.711 C 1.371,0.543 1.362,0.73 1.358,0.918 1.347,1.472 1.048,1.849 0.508,1.972 -0.09,2.108 -0.7,2.051 -1.304,2.026 -1.648,2.011 -1.791,1.824 -1.856,1.477 -1.876,1.375 -1.883,1.273 -1.883,1.17 c 0,-0.523 0,-1.046 0,-1.569 0,-0.559 -10e-4,-1.119 0,-1.678 0.001,-0.209 0.027,-0.22 0.273,-0.23 0.164,-0.006 0.246,0.031 0.241,0.22 -0.011,0.48 0,0.96 -0.006,1.441 -10e-4,0.125 0.038,0.172 0.167,0.169 0.357,-0.006 0.716,-0.006 1.074,0.001 0.103,0.001 0.148,-0.044 0.193,-0.127 0.263,-0.485 0.54,-0.964 0.795,-1.454 0.099,-0.192 0.216,-0.276 0.437,-0.252 0.225,0.024 0.264,0.065 0.154,0.264"
             style="fill:#fec97e;fill-opacity:1;fill-rule:nonzero;stroke:none"
             id="path116" /></g><g
           id="g118"
           transform="translate(18.7368,7.1925)"><path
             d="m 0,0 c -0.316,0 -0.633,0.018 -0.947,-0.004 -0.564,-0.039 -1.027,0.156 -1.436,0.533 -0.28,0.26 -0.581,0.497 -0.876,0.74 C -3.455,1.43 -3.687,1.489 -3.936,1.491 -4.245,1.493 -4.555,1.498 -4.865,1.492 -5.135,1.488 -5.381,1.565 -5.604,1.706 -5.948,1.924 -6.291,1.945 -6.646,1.748 -6.663,1.739 -6.679,1.731 -6.695,1.723 -7.066,1.539 -7.066,1.539 -6.844,1.178 c 0.13,-0.212 0.26,-0.424 0.389,-0.636 0.129,-0.215 0.11,-0.396 -0.05,-0.496 -0.169,-0.106 -0.331,-0.048 -0.464,0.168 -0.853,1.399 -1.705,2.798 -2.557,4.198 -0.148,0.243 -0.302,0.484 -0.442,0.732 -0.058,0.103 -0.116,0.106 -0.215,0.069 -0.634,-0.233 -1.274,-0.273 -1.911,-0.014 -0.109,0.044 -0.142,-0.017 -0.186,-0.082 -0.5,-0.753 -0.999,-1.507 -1.5,-2.26 -0.587,-0.883 -1.175,-1.768 -1.764,-2.65 -0.091,-0.137 -0.196,-0.257 -0.387,-0.191 -0.223,0.077 -0.282,0.285 -0.139,0.502 0.416,0.627 0.835,1.251 1.252,1.877 0.735,1.105 1.47,2.211 2.206,3.315 0.182,0.273 0.283,0.29 0.569,0.135 0.504,-0.274 1.03,-0.261 1.561,-0.09 0.121,0.039 0.238,0.087 0.356,0.136 0.246,0.102 0.365,0.069 0.502,-0.156 0.716,-1.17 1.432,-2.339 2.142,-3.513 0.073,-0.122 0.125,-0.149 0.262,-0.082 0.285,0.139 0.556,0.311 0.889,0.347 0.334,0.036 0.641,-0.026 0.92,-0.194 0.228,-0.136 0.461,-0.202 0.725,-0.192 0.279,0.01 0.559,-10e-4 0.838,-0.002 0.56,-0.002 0.957,-0.328 1.349,-0.671 0.246,-0.216 0.501,-0.422 0.757,-0.627 0.16,-0.129 0.346,-0.188 0.556,-0.187 0.814,0.004 1.627,0.001 2.441,0.002 0.134,0 0.259,-0.024 0.332,-0.146 C 1.719,0.248 1.575,0.002 1.312,0.001 0.875,-0.002 0.437,0 0,0"
             style="fill:#feac37;fill-opacity:1;fill-rule:nonzero;stroke:none"
             id="path120" /></g><g
           id="g122"
           transform="translate(15.854,6.0006)"><path
             d="m 0,0 c -1.348,0 -2.696,-0.006 -4.044,0.004 -0.364,0.003 -0.65,-0.129 -0.887,-0.385 -0.306,-0.331 -0.688,-0.46 -1.127,-0.507 -0.555,-0.06 -1.066,0.024 -1.554,0.302 -0.295,0.168 -0.611,0.171 -0.926,0.025 -0.566,-0.262 -1.112,-0.214 -1.639,0.118 -0.156,0.099 -0.329,0.142 -0.516,0.142 -0.729,-0.004 -1.458,-0.001 -2.186,-0.003 -0.122,0 -0.234,0.022 -0.312,0.116 -0.079,0.094 -0.099,0.206 -0.045,0.325 0.053,0.117 0.144,0.176 0.272,0.176 0.814,0 1.628,0.003 2.441,-0.002 0.159,-0.001 0.305,-0.07 0.448,-0.136 0.126,-0.058 0.253,-0.117 0.378,-0.177 0.289,-0.137 0.574,-0.152 0.874,-0.02 0.577,0.255 1.139,0.233 1.678,-0.12 0.138,-0.09 0.295,-0.134 0.465,-0.129 0.188,0.005 0.377,0.008 0.564,-0.001 0.286,-0.013 0.532,0.085 0.72,0.29 0.411,0.45 0.918,0.602 1.517,0.599 C -1.213,0.605 1.453,0.612 4.119,0.612 4.255,0.612 4.391,0.606 4.47,0.473 4.594,0.262 4.455,0.014 4.208,0 4.166,-0.002 4.124,0 4.081,0 Z"
             style="fill:#feac37;fill-opacity:1;fill-rule:nonzero;stroke:none"
             id="path124" /></g><g
           id="g126"
           transform="translate(20.0669,11.0602)"><path
             d="M 0,0 C -0.124,-0.01 -0.202,0.054 -0.267,0.153 -0.558,0.593 -0.854,1.029 -1.143,1.471 -1.206,1.566 -1.241,1.582 -1.326,1.492 -1.569,1.237 -1.822,0.992 -2.072,0.743 -2.292,0.524 -2.425,0.524 -2.641,0.739 -2.885,0.984 -3.134,1.225 -3.373,1.476 -3.468,1.576 -3.514,1.585 -3.595,1.458 -3.87,1.029 -4.16,0.611 -4.438,0.185 -4.532,0.042 -4.647,-0.036 -4.817,0.006 -5.013,0.053 -5.105,0.283 -4.99,0.459 c 0.39,0.592 0.784,1.182 1.183,1.767 0.134,0.195 0.322,0.204 0.493,0.037 0.285,-0.282 0.569,-0.564 0.848,-0.853 0.075,-0.078 0.116,-0.086 0.196,-0.003 0.265,0.277 0.538,0.545 0.81,0.815 0.23,0.229 0.405,0.209 0.588,-0.063 0.364,-0.545 0.727,-1.09 1.09,-1.634 C 0.296,0.409 0.348,0.287 0.27,0.151 0.211,0.05 0.121,-0.006 0,0"
             style="fill:#feac37;fill-opacity:1;fill-rule:nonzero;stroke:none"
             id="path128" /></g><g
           id="g130"
           transform="translate(17.7138,11.0606)"><path
             d="m 0,0 c 0.278,0 0.557,0.001 0.836,0 0.197,-0.001 0.34,-0.123 0.348,-0.293 0.008,-0.178 -0.136,-0.32 -0.344,-0.321 -0.569,-0.005 -1.138,-0.005 -1.708,0 -0.208,0.001 -0.334,0.136 -0.327,0.327 0.007,0.19 0.119,0.286 0.341,0.287 0.285,0.001 0.569,0 0.854,0"
             style="fill:#feac37;fill-opacity:1;fill-rule:nonzero;stroke:none"
             id="path132" /></g><g
           id="g134"
           transform="translate(11.6425,15.7037)"><path
             d="m 0,0 c -0.904,-0.005 -1.808,-0.005 -2.711,0 -0.246,0.001 -0.407,0.184 -0.399,0.423 0.006,0.214 0.172,0.362 0.416,0.363 0.455,0.002 0.91,0.001 1.365,0.001 0.436,0 0.873,0.001 1.31,-0.001 0.26,0 0.429,-0.15 0.436,-0.382 C 0.425,0.175 0.258,0.001 0,0 M 2.071,2.165 C 1.419,2.213 0.761,2.183 0.105,2.177 -0.06,2.175 -0.157,2.054 -0.162,1.89 -0.167,1.685 -0.031,1.568 0.231,1.567 0.777,1.564 1.324,1.565 1.87,1.566 1.977,1.566 2.074,1.557 2.14,1.455 2.286,1.229 2.154,1 1.856,0.989 1.571,0.979 1.285,0.991 1,0.984 0.889,0.981 0.807,1.009 0.729,1.093 0.537,1.301 0.292,1.388 0.011,1.388 -0.438,1.387 -0.888,1.387 -1.337,1.387 -1.811,1.387 -2.284,1.392 -2.758,1.386 -3.049,1.381 -3.305,1.278 -3.489,1.042 -3.751,0.705 -3.796,0.334 -3.614,-0.051 c 0.183,-0.388 0.52,-0.555 0.929,-0.56 0.898,-0.01 1.797,-0.009 2.695,0 0.499,0.005 0.915,0.338 1.002,0.818 C 1.045,0.391 1.131,0.405 1.268,0.39 1.528,0.361 1.786,0.364 2.047,0.401 2.462,0.459 2.83,0.844 2.813,1.264 2.793,1.731 2.525,2.131 2.071,2.165"
             style="fill:#feac37;fill-opacity:1;fill-rule:nonzero;stroke:none"
             id="path136" /></g><g
           id="g138"
           transform="translate(18.1089,15.2262)"><path
             d="M 0,0 C -0.018,0 -0.037,-0.001 -0.055,-0.001 H -0.709 C -0.939,0 -1.17,-0.003 -1.4,0 -1.65,0.003 -1.876,0.203 -1.887,0.425 -1.897,0.62 -1.688,0.832 -1.441,0.846 -0.946,0.876 -0.449,0.877 0.047,0.845 0.29,0.83 0.491,0.614 0.479,0.412 0.466,0.197 0.246,0.008 0,0 m 0.282,1.424 c -0.321,0.084 -0.651,0.019 -0.878,0.037 -0.341,0 -0.584,0.003 -0.826,-0.001 -0.531,-0.008 -0.989,-0.385 -1.046,-0.856 -0.071,-0.59 0.244,-1.079 0.827,-1.178 0.604,-0.103 1.22,-0.036 1.831,-0.029 0.035,0 0.071,0.016 0.105,0.028 0.537,0.183 0.807,0.601 0.792,1.034 C 1.072,0.922 0.736,1.305 0.282,1.424"
             style="fill:#feac37;fill-opacity:1;fill-rule:nonzero;stroke:none"
             id="path140" /></g></g></g></g></svg>
