<?xml version="1.0" encoding="UTF-8" standalone="no"?>
<svg
   xmlns:dc="http://purl.org/dc/elements/1.1/"
   xmlns:cc="http://creativecommons.org/ns#"
   xmlns:rdf="http://www.w3.org/1999/02/22-rdf-syntax-ns#"
   xmlns:svg="http://www.w3.org/2000/svg"
   xmlns="http://www.w3.org/2000/svg"
   viewBox="0 0 201.25333 201.26401"
   height="201.26401"
   width="201.25333"
   xml:space="preserve"
   id="svg2"
   version="1.1"><metadata
     id="metadata8"><rdf:RDF><cc:Work
         rdf:about=""><dc:format>image/svg+xml</dc:format><dc:type
           rdf:resource="http://purl.org/dc/dcmitype/StillImage" /></cc:Work></rdf:RDF></metadata><defs
     id="defs6"><clipPath
       id="clipPath18"
       clipPathUnits="userSpaceOnUse"><path
         id="path16"
         d="M 0,150.948 H 150.94 V 0 H 0 Z" /></clipPath></defs><g
     transform="matrix(1.3333333,0,0,-1.3333333,0,201.264)"
     id="g10"><g
       id="g12"><g
         clip-path="url(#clipPath18)"
         id="g14"><g
           transform="translate(75.4778,3.5942)"
           id="g20"><path
             id="path22"
             style="fill:#feab34;fill-opacity:1;fill-rule:nonzero;stroke:none"
             d="m 0,0 c -39.722,-0.005 -71.879,32.147 -71.884,71.873 -0.005,39.722 32.147,71.882 71.869,71.887 39.72,0.006 71.877,-32.147 71.884,-71.873 C 71.875,32.165 39.722,0.004 0,0 m -0.056,147.354 c -41.681,-0.035 -75.457,-33.856 -75.422,-75.522 0.036,-41.685 33.849,-75.457 75.519,-75.426 41.676,0.031 75.453,33.852 75.421,75.522 -0.031,41.68 -33.855,75.462 -75.518,75.426" /></g><g
           transform="translate(123.1184,47.2055)"
           id="g24"><path
             id="path26"
             style="fill:#feab34;fill-opacity:1;fill-rule:nonzero;stroke:none"
             d="m 0,0 c -2.076,0 -4.161,0.124 -6.226,-0.027 -3.721,-0.273 -6.735,1.085 -9.424,3.539 -1.853,1.69 -3.82,3.259 -5.765,4.845 -1.25,1.02 -2.739,1.415 -4.334,1.425 -1.996,0.013 -3.992,0.044 -5.987,10e-4 -1.813,-0.038 -3.483,0.435 -4.981,1.389 -2.386,1.518 -4.717,1.521 -7.19,0.191 -2.454,-1.32 -2.49,-1.255 -1.025,-3.655 0.871,-1.428 1.748,-2.853 2.618,-4.282 0.778,-1.281 0.605,-2.524 -0.43,-3.144 -1.088,-0.65 -2.152,-0.277 -2.968,1.06 -6.559,10.742 -13.125,21.48 -19.652,32.243 -0.467,0.77 -0.835,0.867 -1.656,0.578 -4.098,-1.445 -8.241,-1.704 -12.354,-0.072 -0.844,0.335 -1.048,-0.153 -1.378,-0.649 -5.497,-8.251 -10.995,-16.502 -16.493,-24.752 -1.679,-2.518 -3.357,-5.038 -5.047,-7.548 -0.488,-0.726 -1.102,-1.311 -2.072,-1.12 -0.786,0.155 -1.373,0.6 -1.646,1.399 -0.263,0.773 0.06,1.391 0.471,2.007 2.745,4.103 5.485,8.211 8.223,12.319 4.855,7.287 9.703,14.579 14.562,21.863 1.082,1.622 1.838,1.744 3.574,0.781 3.306,-1.835 6.762,-1.735 10.26,-0.654 0.794,0.245 1.567,0.565 2.335,0.888 1.7,0.713 2.445,0.513 3.39,-1.028 4.687,-7.642 9.388,-15.276 14.012,-22.954 0.585,-0.971 1.016,-0.983 1.917,-0.541 1.84,0.901 3.588,2.004 5.736,2.213 2.188,0.213 4.224,-0.14 6.043,-1.298 1.562,-0.996 3.22,-1.301 5.003,-1.284 0.878,0.009 1.765,-0.081 2.632,0.016 4.603,0.514 8.289,-1.242 11.509,-4.396 1.447,-1.417 3.096,-2.629 4.664,-3.92 1.182,-0.973 2.527,-1.42 4.08,-1.41 C -2.33,4.059 2.939,4.03 8.209,4.043 9.087,4.045 9.903,3.916 10.419,3.137 10.867,2.461 10.91,1.699 10.522,0.975 10.151,0.28 9.532,-0.008 8.741,-0.004 5.827,0.008 2.914,0 0,0" /></g><g
           transform="translate(104.3118,39.4536)"
           id="g28"><path
             id="path30"
             style="fill:#feab34;fill-opacity:1;fill-rule:nonzero;stroke:none"
             d="m 0,0 c -8.861,0 -17.723,-0.029 -26.584,0.02 -2.269,0.011 -4.188,-0.73 -5.673,-2.345 -2.157,-2.347 -4.785,-3.37 -7.91,-3.585 -2.047,-0.142 -4.054,-0.101 -6.046,0.299 -1.254,0.251 -2.36,0.936 -3.481,1.531 -2.263,1.201 -4.502,1.322 -6.87,0.226 -3.47,-1.608 -6.866,-1.281 -10.11,0.71 -1.253,0.769 -2.584,1.12 -4.075,1.104 -4.71,-0.049 -9.42,-0.025 -14.131,-0.014 -1.578,0.003 -2.62,1.012 -2.388,2.312 0.191,1.066 0.828,1.719 1.962,1.721 5.349,0.008 10.698,0.025 16.047,-0.014 1.162,-0.008 2.222,-0.551 3.268,-1.032 0.615,-0.285 1.226,-0.577 1.831,-0.882 2.072,-1.048 4.125,-1.15 6.304,-0.195 3.722,1.631 7.345,1.391 10.799,-0.869 0.905,-0.591 1.941,-0.874 3.057,-0.841 1.236,0.038 2.477,0.058 3.711,-0.005 1.885,-0.097 3.494,0.565 4.723,1.902 2.711,2.949 6.042,3.951 9.976,3.934 17.523,-0.081 35.047,-0.036 52.57,-0.034 0.987,0 1.953,-0.051 2.41,-1.134 C 30.035,1.28 29.087,0.003 27.304,0.002 18.203,-0.003 9.102,0 0,0" /></g><g
           transform="translate(131.9788,72.5942)"
           id="g32"><path
             id="path34"
             style="fill:#feab34;fill-opacity:1;fill-rule:nonzero;stroke:none"
             d="m 0,0 c -0.906,-0.066 -1.406,0.368 -1.834,1.015 -1.887,2.858 -3.824,5.682 -5.685,8.557 -0.49,0.758 -0.772,0.743 -1.368,0.119 -1.598,-1.673 -3.256,-3.291 -4.903,-4.916 -1.328,-1.311 -2.258,-1.302 -3.568,0.004 -1.697,1.691 -3.403,3.371 -5.075,5.084 -0.496,0.509 -0.732,0.497 -1.139,-0.127 -1.893,-2.901 -3.857,-5.754 -5.765,-8.644 -0.57,-0.864 -1.3,-1.278 -2.317,-1.076 -1.236,0.245 -1.943,1.818 -1.201,2.953 2.568,3.932 5.182,7.836 7.845,11.706 0.849,1.233 2.056,1.244 3.15,0.17 1.878,-1.846 3.745,-3.704 5.577,-5.595 0.49,-0.507 0.763,-0.582 1.296,-0.025 1.736,1.817 3.53,3.58 5.319,5.346 1.526,1.507 2.663,1.381 3.863,-0.414 C -3.413,10.581 -1.019,7.007 1.348,3.415 2.249,2.045 2.11,0.969 1.041,0.288 0.698,0.069 0.332,-0.081 0,0" /></g><g
           transform="translate(116.4554,72.5903)"
           id="g36"><path
             id="path38"
             style="fill:#feab34;fill-opacity:1;fill-rule:nonzero;stroke:none"
             d="m 0,0 c 1.835,0 3.67,0.009 5.505,-0.003 1.348,-0.008 2.206,-0.784 2.21,-1.966 0.004,-1.194 -0.83,-2.049 -2.162,-2.059 -3.75,-0.031 -7.501,-0.028 -11.25,-0.003 -1.363,0.01 -2.213,0.9 -2.169,2.146 0.043,1.249 0.781,1.877 2.241,1.883 C -3.75,0.006 -1.875,0 0,0" /></g><g
           transform="translate(76.5286,103.063)"
           id="g40"><path
             id="path42"
             style="fill:#feab34;fill-opacity:1;fill-rule:nonzero;stroke:none"
             d="m 0,0 c -5.941,-0.032 -11.883,-0.034 -17.824,0 -1.613,0.01 -2.669,1.212 -2.621,2.781 0.043,1.4 1.136,2.371 2.742,2.38 2.951,0.015 5.901,0.004 8.852,0.004 2.911,0 5.822,0.005 8.733,-0.002 C 1.596,5.159 2.702,4.178 2.751,2.646 2.798,1.141 1.698,0.009 0,0 m 12.587,14.327 c -0.998,0.021 -1.996,0.006 -2.994,0.005 -2.914,-0.006 -5.829,0.011 -8.742,-0.031 -1.146,-0.017 -1.837,-0.693 -1.901,-1.742 -0.067,-1.089 0.404,-1.809 1.498,-2.125 0.475,-0.137 0.939,-0.153 1.415,-0.153 3.514,-0.002 7.027,-0.006 10.54,0.002 0.716,0.001 1.321,-0.132 1.721,-0.825 0.85,-1.469 -0.02,-2.91 -1.893,-2.97 C 10.317,6.426 8.398,6.502 6.483,6.458 5.787,6.442 5.293,6.647 4.815,7.155 3.515,8.538 1.865,9.117 -0.021,9.108 -2.935,9.095 -5.849,9.105 -8.763,9.104 c -3.114,0 -6.228,0.021 -9.341,-0.004 -4.02,-0.034 -6.984,-3.688 -6.209,-7.618 0.68,-3.447 3.022,-5.435 6.793,-5.485 5.788,-0.079 11.578,-0.07 17.366,-0.003 3.519,0.041 6.391,2.348 6.834,5.506 0.143,1.026 0.545,1.117 1.343,1.087 1.708,-0.064 3.401,-0.183 5.13,0.002 2.73,0.293 5.344,2.62 5.334,5.769 -0.011,3.344 -2.626,5.902 -5.9,5.969" /></g><g
           transform="translate(119.2171,99.9321)"
           id="g44"><path
             id="path46"
             style="fill:#feab34;fill-opacity:1;fill-rule:nonzero;stroke:none"
             d="m 0,0 c -0.079,-0.004 -0.159,-0.005 -0.239,-0.005 -1.514,0 -3.028,0 -4.541,-0.001 -1.554,0 -3.109,-0.02 -4.661,0.005 -1.627,0.027 -3.128,1.409 -3.144,2.85 -0.015,1.269 1.314,2.598 2.873,2.695 3.3,0.206 6.607,0.203 9.906,-0.002 C 1.694,5.449 3.008,4.058 2.978,2.758 2.945,1.421 1.502,0.083 0,0 m 1.729,9.328 c -2.103,0.604 -4.283,0.129 -6.422,0.211 -1.994,0 -4.028,0.251 -5.975,-0.053 -3.883,-0.606 -6.033,-3.652 -5.734,-7.656 0.232,-3.11 3.385,-5.789 6.965,-5.841 3.153,-0.045 6.305,-0.004 9.458,-0.018 0.567,-0.003 1.109,0.089 1.646,0.241 2.932,0.829 5.23,3.43 5.3,6.373 0.065,2.77 -1.586,5.693 -5.238,6.743" /></g></g></g></g></svg>