<?xml version="1.0" encoding="UTF-8" standalone="no"?>
<svg
   xmlns:dc="http://purl.org/dc/elements/1.1/"
   xmlns:cc="http://creativecommons.org/ns#"
   xmlns:rdf="http://www.w3.org/1999/02/22-rdf-syntax-ns#"
   xmlns:svg="http://www.w3.org/2000/svg"
   xmlns="http://www.w3.org/2000/svg"
   viewBox="0 0 113.7044 30.666668"
   height="30.666668"
   width="113.7044"
   xml:space="preserve"
   id="svg2"
   version="1.1"><metadata
     id="metadata8"><rdf:RDF><cc:Work
         rdf:about=""><dc:format>image/svg+xml</dc:format><dc:type
           rdf:resource="http://purl.org/dc/dcmitype/StillImage" /></cc:Work></rdf:RDF></metadata><defs
     id="defs6"><clipPath
       id="clipPath18"
       clipPathUnits="userSpaceOnUse"><path
         id="path16"
         d="M 0,23 H 85.278 V 0 H 0 Z" /></clipPath></defs><g
     transform="matrix(1.3333333,0,0,-1.3333333,0,30.666667)"
     id="g10"><g
       id="g12"><g
         clip-path="url(#clipPath18)"
         id="g14"><g
           transform="translate(49.2836,17.9824)"
           id="g20"><path
             id="path22"
             style="fill:#feac34;fill-opacity:1;fill-rule:nonzero;stroke:none"
             d="m 0,0 c -0.292,-0.291 -0.574,-0.556 -0.879,-0.795 -1.077,-0.847 -2.25,-1.534 -3.495,-2.101 -0.116,-0.053 -0.169,-0.036 -0.216,0.082 -0.063,0.157 -0.139,0.311 -0.218,0.461 -0.053,0.102 -0.044,0.153 0.071,0.207 1.242,0.586 2.404,1.304 3.478,2.162 0.348,0.278 0.673,0.579 0.932,0.946 0.111,0.159 0.174,0.324 0.167,0.525 -0.013,0.413 -0.011,0.827 0,1.241 0.005,0.156 -0.047,0.189 -0.195,0.188 -1.328,-0.005 -2.655,10e-4 -3.983,-0.008 -0.179,-10e-4 -0.237,0.048 -0.216,0.223 0.023,0.184 -0.077,0.427 0.041,0.542 0.109,0.106 0.348,0.029 0.53,0.029 3.013,0.002 6.028,0 9.042,0.005 0.16,0 0.236,-0.03 0.212,-0.207 C 5.257,3.387 5.269,3.27 5.27,3.154 5.271,2.913 5.272,2.913 5.039,2.913 H 1.093 c -0.233,0 -0.234,0 -0.234,-0.234 V 0.981 c 0.001,-1.248 0.584,-1.984 1.805,-2.277 0.47,-0.113 0.948,-0.15 1.43,-0.148 0.421,10e-4 0.841,-0.003 1.26,0.002 C 5.466,-1.441 5.521,-1.461 5.515,-1.59 5.504,-1.772 5.51,-1.955 5.513,-2.137 5.514,-2.21 5.493,-2.25 5.41,-2.248 4.366,-2.233 3.315,-2.322 2.29,-2.031 1.566,-1.825 0.917,-1.502 0.438,-0.899 0.233,-0.64 0.095,-0.345 0,0" /></g><g
           transform="translate(30.8994,14.5146)"
           id="g24"><path
             id="path26"
             style="fill:#feac34;fill-opacity:1;fill-rule:nonzero;stroke:none"
             d="m 0,0 c -0.343,-0.577 -0.723,-1.127 -1.141,-1.649 -0.469,-0.585 -0.981,-1.13 -1.523,-1.648 -0.088,-0.085 -0.144,-0.104 -0.228,0.004 -0.126,0.164 -0.263,0.32 -0.402,0.473 -0.067,0.073 -0.071,0.112 0.008,0.187 1.003,0.946 1.858,2.01 2.563,3.193 0.137,0.229 0.255,0.47 0.369,0.711 0.158,0.333 0.239,0.678 0.234,1.056 -0.015,1.15 -0.008,2.299 -0.002,3.449 0.001,0.147 -0.029,0.196 -0.187,0.194 -0.785,-0.009 -1.571,0.002 -2.357,-0.008 -0.167,-0.003 -0.21,0.049 -0.196,0.205 0.013,0.145 0.009,0.292 0,0.437 -0.008,0.124 0.044,0.167 0.159,0.153 0.018,-0.002 0.036,0 0.055,0 1.998,0 3.996,-0.002 5.993,0.003 C 3.513,6.761 3.576,6.718 3.558,6.547 3.544,6.415 3.546,6.279 3.558,6.146 3.57,6.003 3.524,5.961 3.377,5.963 2.61,5.97 1.842,5.962 1.075,5.97 0.93,5.971 0.894,5.931 0.895,5.789 0.9,4.219 0.895,2.649 0.901,1.079 0.903,0.542 0.981,0.014 1.18,-0.491 1.579,-1.501 2.341,-1.999 3.408,-2.062 3.56,-2.07 3.712,-2.069 3.864,-2.063 3.958,-2.061 3.996,-2.089 3.993,-2.187 3.987,-2.381 3.989,-2.576 3.992,-2.771 3.994,-2.854 3.965,-2.891 3.877,-2.894 2.725,-2.929 1.695,-2.641 0.88,-1.777 0.447,-1.317 0.19,-0.767 0.06,-0.154 0.051,-0.113 0.042,-0.071 0.031,-0.03 0.029,-0.021 0.016,-0.015 0,0" /></g><g
           transform="translate(78.726,21.7827)"
           id="g28"><path
             id="path30"
             style="fill:#feac34;fill-opacity:1;fill-rule:nonzero;stroke:none"
             d="m 0,0 c 1.565,0 3.131,-0.002 4.696,0.003 0.158,0.001 0.221,-0.033 0.202,-0.199 -0.014,-0.138 -0.013,-0.281 0,-0.419 0.015,-0.15 -0.044,-0.179 -0.183,-0.179 -1.346,0.005 -2.692,0 -4.037,0.007 C 0.514,-0.786 0.459,-0.824 0.468,-0.994 0.489,-1.437 0.435,-1.884 0.494,-2.325 0.568,-2.872 0.896,-3.251 1.364,-3.518 1.811,-3.771 2.302,-3.882 2.809,-3.931 3.525,-4 4.245,-3.958 4.963,-3.962 5.115,-3.963 5.165,-4.001 5.152,-4.154 5.139,-4.323 5.148,-4.494 5.149,-4.665 c 0,-0.06 -0.003,-0.107 -0.085,-0.106 -1.116,0.027 -2.243,-0.102 -3.339,0.221 -0.661,0.194 -1.257,0.492 -1.699,1.042 -0.122,0.153 -0.229,0.316 -0.297,0.5 -0.04,0.108 -0.075,0.09 -0.149,0.032 -1.317,-1.017 -2.789,-1.746 -4.343,-2.324 -0.129,-0.048 -0.192,-0.034 -0.232,0.105 -0.044,0.151 -0.102,0.299 -0.167,0.443 -0.053,0.116 -0.028,0.164 0.093,0.212 0.962,0.383 1.899,0.818 2.797,1.335 0.553,0.32 1.095,0.658 1.549,1.118 0.123,0.125 0.187,0.254 0.175,0.435 -0.016,0.23 -0.013,0.463 -0.001,0.694 0.007,0.138 -0.036,0.171 -0.172,0.17 -1.328,-0.005 -2.655,0 -3.983,-0.007 -0.168,-0.001 -0.226,0.044 -0.208,0.211 0.014,0.132 0.011,0.268 0,0.4 -0.012,0.142 0.033,0.189 0.181,0.187 C -4.208,-0.005 -3.685,0 -3.16,0 Z" /></g><g
           transform="translate(49.562,13.8003)"
           id="g32"><path
             id="path34"
             style="fill:#feac34;fill-opacity:1;fill-rule:nonzero;stroke:none"
             d="M 0,0 C 2.149,0 4.299,-0.002 6.447,0.003 6.612,0.004 6.675,-0.034 6.658,-0.205 6.643,-0.355 6.646,-0.509 6.657,-0.66 6.669,-0.802 6.625,-0.845 6.478,-0.844 5.809,-0.835 5.139,-0.84 4.469,-0.84 3.227,-0.84 1.985,-0.843 0.743,-0.836 0.587,-0.835 0.539,-0.867 0.54,-1.033 0.548,-2.414 0.542,-3.794 0.549,-5.175 0.55,-5.337 0.51,-5.385 0.348,-5.374 c -0.237,0.014 -0.475,0.016 -0.711,-0.001 -0.17,-0.012 -0.198,0.052 -0.198,0.205 0.006,1.362 0.004,2.725 0.003,4.087 0,0.278 0.036,0.242 -0.241,0.242 -1.888,0.002 -3.774,0.003 -5.662,-0.003 -0.166,0 -0.225,0.041 -0.211,0.21 0.013,0.156 0.002,0.316 -0.011,0.473 -0.01,0.128 0.035,0.165 0.162,0.163 C -6.027,-0.004 -5.534,0 -5.041,0 Z" /></g><g
           transform="translate(37.6811,15.332)"
           id="g36"><path
             id="path38"
             style="fill:#feac34;fill-opacity:1;fill-rule:nonzero;stroke:none"
             d="m 0,0 c 0,-2.043 -0.002,-4.087 0.004,-6.13 0.001,-0.164 -0.045,-0.21 -0.203,-0.199 -0.194,0.014 -0.39,0.013 -0.584,0 -0.142,-0.008 -0.171,0.044 -0.17,0.176 0.004,1.46 0.003,2.92 0.003,4.379 0,0.876 -0.003,1.752 0.003,2.628 0.001,0.133 -0.03,0.174 -0.17,0.173 -0.852,-0.007 -1.704,0 -2.557,-0.007 -0.147,-0.001 -0.187,0.045 -0.179,0.185 0.011,0.188 0.011,0.377 -10e-4,0.565 -0.007,0.137 0.037,0.176 0.174,0.174 0.834,-0.006 1.668,0.003 2.502,-0.007 C -1,1.936 -0.944,1.97 -0.945,2.162 -0.955,3.5 -0.948,4.838 -0.954,6.176 -0.955,6.327 -0.916,6.378 -0.763,6.368 -0.562,6.354 -0.36,6.357 -0.16,6.367 -0.031,6.374 0.004,6.331 0.003,6.204 -0.003,5.607 0,5.012 0,4.416 Z" /></g><g
           transform="translate(40.6782,15.2798)"
           id="g40"><path
             id="path42"
             style="fill:#feac34;fill-opacity:1;fill-rule:nonzero;stroke:none"
             d="m 0,0 c 0,-2.092 -0.002,-4.185 0.004,-6.277 0.001,-0.171 -0.048,-0.218 -0.211,-0.206 -0.207,0.013 -0.414,0.007 -0.621,10e-4 -0.098,-0.003 -0.135,0.031 -0.123,0.126 0.004,0.029 0.001,0.06 0.001,0.09 0,4.173 0.001,8.346 -0.005,12.519 0,0.187 0.047,0.243 0.23,0.226 C -0.537,6.462 -0.348,6.467 -0.159,6.478 -0.028,6.486 0.004,6.44 0.003,6.314 -0.003,5.542 0,4.769 0,3.997 Z" /></g><g
           transform="translate(69.4399,15.3261)"
           id="g44"><path
             id="path46"
             style="fill:#feac34;fill-opacity:1;fill-rule:nonzero;stroke:none"
             d="m 0,0 c 0,-2.074 -0.002,-4.147 0.003,-6.221 0,-0.154 -0.025,-0.218 -0.196,-0.203 -0.211,0.016 -0.426,0.008 -0.639,0.002 -0.105,-0.003 -0.144,0.037 -0.133,0.137 0.005,0.036 0.001,0.074 0.001,0.11 V 6.194 c 0,0.247 0,0.247 0.242,0.247 0.164,0 0.329,-0.011 0.493,0.003 C -0.053,6.46 0.007,6.416 0.005,6.221 -0.006,5.133 0,4.044 0,2.956 Z" /></g><g
           transform="translate(82.4457,5.1469)"
           id="g48"><path
             id="path50"
             style="fill:#ffce85;fill-opacity:1;fill-rule:nonzero;stroke:none"
             d="m 0,0 c -0.258,-0.496 -0.518,-0.991 -0.774,-1.488 -0.296,-0.573 -0.594,-1.145 -0.882,-1.721 -0.059,-0.116 -0.132,-0.137 -0.252,-0.153 -0.318,-0.044 -0.478,0.078 -0.62,0.37 -0.472,0.967 -0.983,1.915 -1.478,2.87 -0.016,0.032 -0.035,0.062 -0.085,0.093 v -0.185 c 0,-1.156 -10e-4,-2.311 0.001,-3.468 0,-0.114 0.005,-0.245 -0.12,-0.276 -0.143,-0.035 -0.303,-0.06 -0.442,0.021 -0.089,0.051 -0.062,0.152 -0.062,0.234 -10e-4,1.521 -10e-4,3.043 -10e-4,4.563 0,0.134 10e-4,0.269 0,0.403 -0.001,0.126 0.06,0.185 0.188,0.193 0.39,0.024 0.388,0.025 0.567,-0.321 0.607,-1.179 1.217,-2.357 1.825,-3.534 0.025,-0.047 0.055,-0.092 0.098,-0.165 0.114,0.21 0.219,0.396 0.317,0.586 0.569,1.096 1.135,2.192 1.703,3.289 C 0.055,1.448 0.289,1.514 0.51,1.45 0.66,1.407 0.661,1.286 0.661,1.157 0.659,-0.455 0.659,-2.067 0.661,-3.68 0.661,-3.793 0.668,-3.924 0.543,-3.957 0.4,-3.994 0.241,-4.015 0.1,-3.938 0.018,-3.894 0.036,-3.801 0.036,-3.723 v 3.541 0.177 C 0.024,-0.004 0.013,-0.002 0,0" /></g><g
           transform="translate(78.6313,14.4804)"
           id="g52"><path
             id="path54"
             style="fill:#feac34;fill-opacity:1;fill-rule:nonzero;stroke:none"
             d="m 0,0 c -2.15,0 -4.3,0.002 -6.449,-0.004 -0.177,0 -0.236,0.046 -0.219,0.222 0.015,0.163 0.006,0.329 0.002,0.493 -0.002,0.079 0.027,0.112 0.106,0.106 0.042,-0.004 0.085,-0.001 0.128,-0.001 H 6.41 c 0.236,0 0.236,0 0.236,-0.232 0,-0.151 -0.003,-0.304 0,-0.456 C 6.649,0.036 6.617,-0.008 6.521,0 6.473,0.003 6.424,0 6.375,0 Z" /></g><g
           transform="translate(37.976,3.5659)"
           id="g56"><path
             id="path58"
             style="fill:#ffce85;fill-opacity:1;fill-rule:nonzero;stroke:none"
             d="M 0,0 C 0,0.675 0.001,1.351 -0.002,2.025 -0.003,2.16 0.015,2.293 0.044,2.423 0.131,2.813 0.404,3.022 0.903,3.031 1.768,3.046 2.633,3.035 3.497,3.036 3.636,3.037 3.689,2.968 3.694,2.833 3.708,2.434 3.701,2.424 3.303,2.424 c -0.755,0 -1.51,0 -2.265,-10e-4 C 0.738,2.422 0.654,2.342 0.651,2.048 0.648,1.652 0.655,1.257 0.646,0.861 0.644,0.728 0.695,0.701 0.817,0.701 1.646,0.706 2.474,0.704 3.301,0.703 3.57,0.703 3.61,0.664 3.61,0.401 3.611,0.134 3.57,0.091 3.31,0.091 2.487,0.091 1.665,0.087 0.844,0.094 0.696,0.095 0.643,0.06 0.646,-0.097 c 0.009,-0.505 0.008,-1.009 0,-1.514 -0.001,-0.139 0.044,-0.174 0.178,-0.173 0.895,0.005 1.79,0.003 2.685,0.002 0.246,0 0.287,-0.045 0.287,-0.306 0,-0.262 -0.041,-0.308 -0.285,-0.308 H 0.277 C 0.05,-2.396 0,-2.345 0,-2.117 -0.001,-1.411 -0.001,-0.706 0,0" /></g><g
           transform="translate(70.9203,6.643)"
           id="g60"><path
             id="path62"
             style="fill:#ffce85;fill-opacity:1;fill-rule:nonzero;stroke:none"
             d="M 0,0 C 0.58,-0.008 1.149,-0.082 1.701,-0.273 1.826,-0.316 1.872,-0.373 1.827,-0.498 1.813,-0.538 1.81,-0.581 1.8,-0.623 1.739,-0.881 1.687,-0.909 1.434,-0.829 c -0.726,0.23 -1.464,0.3 -2.211,0.131 -0.422,-0.096 -0.594,-0.351 -0.56,-0.767 0.015,-0.173 0.088,-0.31 0.237,-0.409 0.145,-0.096 0.304,-0.151 0.464,-0.208 0.63,-0.223 1.281,-0.385 1.886,-0.681 0.857,-0.419 0.89,-1.552 0.476,-2.106 -0.271,-0.361 -0.661,-0.513 -1.087,-0.565 -0.904,-0.11 -1.779,0.048 -2.638,0.322 -0.099,0.031 -0.145,0.071 -0.107,0.178 0.019,0.057 0.02,0.12 0.031,0.179 0.054,0.285 0.076,0.295 0.359,0.202 0.677,-0.22 1.367,-0.339 2.081,-0.302 0.165,0.007 0.327,0.038 0.482,0.092 0.29,0.104 0.46,0.31 0.485,0.621 0.029,0.35 -0.033,0.653 -0.384,0.833 -0.469,0.241 -0.977,0.368 -1.472,0.536 -0.19,0.064 -0.384,0.117 -0.572,0.186 -0.868,0.321 -1.181,1.3 -0.647,2.026 0.22,0.298 0.546,0.416 0.891,0.487 C -0.571,-0.018 -0.287,0.007 0,0" /></g><g
           transform="translate(54.853,4.6382)"
           id="g64"><path
             id="path66"
             style="fill:#ffce85;fill-opacity:1;fill-rule:nonzero;stroke:none"
             d="m 0,0 c 0,-0.535 -0.005,-1.071 0.002,-1.606 0.011,-0.8 0.532,-1.307 1.336,-1.326 0.538,-0.011 1.002,0.122 1.297,0.611 0.136,0.223 0.189,0.47 0.189,0.732 -10e-4,1.082 0,2.165 -10e-4,3.248 0,0.112 -0.012,0.243 0.113,0.28 C 3.084,1.984 3.247,2 3.395,1.922 3.466,1.884 3.476,1.81 3.476,1.731 3.474,0.6 3.485,-0.531 3.47,-1.663 3.455,-2.658 2.786,-3.373 1.794,-3.511 1.375,-3.569 0.967,-3.542 0.572,-3.399 c -0.746,0.269 -1.209,0.919 -1.218,1.735 -0.013,1.131 -0.004,2.263 -0.005,3.394 -0.001,0.16 0.074,0.236 0.232,0.234 h 0.146 C -0.058,1.962 -0.002,1.909 -0.001,1.697 V 0 Z" /></g><g
           transform="translate(32.2783,4.4282)"
           id="g68"><path
             id="path70"
             style="fill:#ffce85;fill-opacity:1;fill-rule:nonzero;stroke:none"
             d="m 0,0 c 0,0.632 0,1.265 0,1.896 0,0.241 0.047,0.279 0.334,0.279 0.267,0 0.316,-0.042 0.316,-0.278 0,-1.234 0.003,-2.468 -0.003,-3.702 -0.002,-0.394 -0.074,-0.772 -0.361,-1.078 -0.289,-0.306 -0.667,-0.385 -1.06,-0.408 -0.587,-0.034 -1.145,0.101 -1.689,0.313 -0.109,0.042 -0.14,0.088 -0.114,0.215 0.084,0.408 0.108,0.439 0.508,0.282 0.433,-0.17 0.884,-0.249 1.355,-0.202 0.44,0.045 0.701,0.301 0.708,0.75 0.009,0.644 0.002,1.288 0.002,1.933 z" /></g><g
           transform="translate(48.5043,4.4321)"
           id="g72"><path
             id="path74"
             style="fill:#ffce85;fill-opacity:1;fill-rule:nonzero;stroke:none"
             d="m 0,0 v 1.896 c 0.001,0.234 0.05,0.275 0.319,0.275 0.279,0 0.33,-0.039 0.33,-0.263 C 0.65,0.655 0.655,-0.597 0.646,-1.849 0.644,-2.257 0.551,-2.644 0.232,-2.94 c -0.276,-0.257 -0.619,-0.33 -0.973,-0.353 -0.606,-0.041 -1.182,0.097 -1.741,0.319 -0.097,0.039 -0.121,0.084 -0.097,0.193 0.087,0.404 0.086,0.464 0.514,0.295 0.426,-0.168 0.872,-0.248 1.336,-0.201 0.465,0.047 0.718,0.3 0.724,0.772 0.008,0.638 0.002,1.276 0.002,1.915 z" /></g><g
           transform="translate(63.3383,3.8882)"
           id="g76"><path
             id="path78"
             style="fill:#ffce85;fill-opacity:1;fill-rule:nonzero;stroke:none"
             d="M 0,0 V 2.425 C 0,2.669 0.046,2.716 0.282,2.717 0.638,2.719 0.65,2.706 0.65,2.346 0.65,0.76 0.649,-0.827 0.65,-2.413 0.651,-2.524 0.664,-2.658 0.539,-2.694 0.386,-2.739 0.216,-2.756 0.063,-2.676 -0.02,-2.633 0,-2.539 0,-2.461 Z" /></g><g
           transform="translate(11.5024,0.5473)"
           id="g80"><path
             id="path82"
             style="fill:#feac34;fill-opacity:1;fill-rule:nonzero;stroke:none"
             d="m 0,0 c -6.058,-0.002 -10.968,4.9 -10.968,10.953 0,6.051 4.909,10.954 10.968,10.952 C 6.059,21.902 10.963,16.997 10.959,10.944 10.955,4.899 6.052,0.003 0,0 M -0.01,22.453 C -6.369,22.449 -11.521,17.298 -11.517,10.947 -11.513,4.595 -6.357,-0.551 0.001,-0.547 6.36,-0.544 11.51,4.605 11.507,10.958 11.505,17.31 6.348,22.456 -0.01,22.453" /></g><g
           transform="translate(64.8344,16.2578)"
           id="g84"><path
             id="path86"
             style="fill:#feac34;fill-opacity:1;fill-rule:nonzero;stroke:none"
             d="m 0,0 c -0.021,-0.566 0.027,-1.26 -0.032,-1.953 -0.099,-1.153 -0.755,-2.013 -1.786,-2.283 -0.654,-0.172 -1.313,-0.171 -1.965,0.02 -0.65,0.19 -1.125,0.588 -1.424,1.195 -0.188,0.381 -0.296,0.789 -0.307,1.21 -0.033,1.296 -0.05,2.593 0.004,3.887 0.038,0.886 0.356,1.668 1.158,2.159 0.584,0.357 1.235,0.424 1.903,0.376 0.422,-0.03 0.83,-0.125 1.202,-0.336 C -0.552,3.882 -0.217,3.25 -0.075,2.494 -0.022,2.213 0.002,1.928 0.001,1.642 -0.001,1.136 0,0.631 0,0 M 0.987,1.71 C 0.987,2.059 0.95,2.403 0.873,2.741 0.578,4.031 -0.163,4.923 -1.461,5.291 -2.36,5.545 -3.268,5.537 -4.163,5.273 -5.202,4.966 -5.904,4.287 -6.276,3.271 -6.452,2.792 -6.532,2.295 -6.539,1.788 -6.546,1.234 -6.54,0.681 -6.54,0.127 h -0.001 c 0,-0.493 0.002,-0.985 -10e-4,-1.478 -0.003,-0.378 0.031,-0.753 0.114,-1.122 0.282,-1.253 0.99,-2.14 2.244,-2.524 0.924,-0.282 1.863,-0.282 2.788,-0.006 1.06,0.315 1.768,1.011 2.133,2.053 0.166,0.475 0.246,0.966 0.248,1.467 0.004,1.065 0.001,2.129 0.002,3.193" /></g><g
           transform="translate(82.5248,8.8579)"
           id="g88"><path
             id="path90"
             style="fill:#feac34;fill-opacity:1;fill-rule:nonzero;stroke:none"
             d="m 0,0 c -1.29,0.001 -2.581,0.001 -3.871,0.001 -1.279,0 -2.558,0.002 -3.836,-0.004 -0.15,0 -0.193,0.038 -0.192,0.191 0.006,0.943 0.007,1.885 0,2.828 -0.001,0.151 0.047,0.177 0.184,0.176 2.399,-0.004 4.797,-0.002 7.195,-0.003 0.462,0 0.694,-0.217 0.698,-0.675 C 0.186,1.723 0.177,0.933 0.185,0.142 0.186,-0.015 0.101,0 0,0 M 1.122,2.794 C 1.111,3.436 0.75,3.83 0.133,3.942 c -0.15,0.027 -0.303,0.037 -0.455,0.037 -2.782,0.002 -5.566,0 -8.349,0.004 -0.149,10e-4 -0.179,-0.047 -0.178,-0.186 0.004,-1.46 0.005,-2.92 -10e-4,-4.379 -0.001,-0.161 0.034,-0.213 0.206,-0.212 1.595,0.007 3.191,0.004 4.787,0.004 1.601,0 3.203,0 4.804,0.002 0.079,0 0.187,-0.047 0.186,0.114 -0.005,1.156 0.009,2.313 -0.011,3.468" /></g><g
           transform="translate(18.7661,7.1928)"
           id="g92"><path
             id="path94"
             style="fill:#feac34;fill-opacity:1;fill-rule:nonzero;stroke:none"
             d="M 0,0 C -0.317,0 -0.635,0.018 -0.95,-0.005 -1.517,-0.045 -1.978,0.158 -2.387,0.534 -2.669,0.793 -2.97,1.031 -3.267,1.273 -3.458,1.43 -3.686,1.487 -3.928,1.49 -4.245,1.493 -4.562,1.496 -4.878,1.492 -5.135,1.489 -5.376,1.555 -5.586,1.691 -5.955,1.931 -6.313,1.937 -6.698,1.73 -7.074,1.528 -7.079,1.538 -6.852,1.172 c 0.134,-0.217 0.269,-0.434 0.4,-0.652 0.12,-0.2 0.091,-0.382 -0.069,-0.478 -0.166,-0.098 -0.328,-0.043 -0.454,0.163 -0.995,1.626 -1.99,3.253 -2.98,4.882 -0.078,0.127 -0.134,0.166 -0.289,0.111 -0.618,-0.219 -1.245,-0.255 -1.865,-0.004 -0.101,0.041 -0.143,0.004 -0.191,-0.068 -0.959,-1.44 -1.919,-2.88 -2.879,-4.32 -0.137,-0.207 -0.273,-0.416 -0.414,-0.62 -0.142,-0.207 -0.285,-0.242 -0.461,-0.125 -0.155,0.103 -0.175,0.27 -0.048,0.462 1.165,1.747 2.331,3.493 3.498,5.238 0.126,0.19 0.283,0.242 0.449,0.137 0.524,-0.33 1.076,-0.318 1.642,-0.148 0.116,0.035 0.229,0.08 0.34,0.127 0.281,0.12 0.387,0.092 0.545,-0.164 0.711,-1.159 1.424,-2.317 2.126,-3.483 0.09,-0.149 0.156,-0.146 0.293,-0.08 0.281,0.137 0.547,0.304 0.875,0.337 0.335,0.034 0.642,-0.028 0.922,-0.197 0.222,-0.135 0.451,-0.198 0.709,-0.189 0.286,0.009 0.573,-0.003 0.859,-0.004 0.555,-10e-4 0.948,-0.325 1.337,-0.662 0.248,-0.215 0.503,-0.421 0.758,-0.627 0.166,-0.135 0.357,-0.196 0.574,-0.195 0.81,0.004 1.62,0.001 2.43,0.002 C 1.395,0.616 1.526,0.597 1.601,0.463 1.725,0.243 1.587,0.003 1.333,0.001 0.889,-0.003 0.445,0 0,0" /></g><g
           transform="translate(15.8828,6.0005)"
           id="g96"><path
             id="path98"
             style="fill:#feac34;fill-opacity:1;fill-rule:nonzero;stroke:none"
             d="m 0,0 c -1.352,0 -2.704,-0.006 -4.055,0.005 -0.364,0.003 -0.652,-0.129 -0.889,-0.386 -0.307,-0.331 -0.69,-0.46 -1.13,-0.507 -0.556,-0.059 -1.07,0.025 -1.558,0.302 -0.297,0.168 -0.613,0.172 -0.929,0.025 -0.568,-0.261 -1.116,-0.214 -1.643,0.118 -0.157,0.099 -0.33,0.142 -0.518,0.142 -0.731,-0.004 -1.462,-0.001 -2.192,-0.003 -0.122,-0.001 -0.234,0.022 -0.313,0.116 -0.079,0.094 -0.099,0.206 -0.045,0.325 0.054,0.117 0.145,0.175 0.272,0.176 0.816,0 1.632,0.002 2.448,-0.001 0.159,-0.001 0.306,-0.071 0.449,-0.137 0.127,-0.058 0.254,-0.117 0.38,-0.177 0.289,-0.138 0.576,-0.152 0.876,-0.019 0.578,0.254 1.142,0.232 1.682,-0.122 0.139,-0.089 0.296,-0.133 0.466,-0.128 0.189,0.005 0.378,0.008 0.567,0 0.286,-0.014 0.533,0.084 0.72,0.289 0.413,0.449 0.921,0.602 1.522,0.599 C -1.217,0.604 1.456,0.611 4.129,0.612 4.267,0.612 4.403,0.606 4.482,0.473 4.606,0.262 4.467,0.014 4.22,0.001 4.177,-0.001 4.135,0 4.092,0 Z" /></g><g
           transform="translate(20.1054,11.0605)"
           id="g100"><path
             id="path102"
             style="fill:#feac34;fill-opacity:1;fill-rule:nonzero;stroke:none"
             d="M 0,0 C -0.129,-0.009 -0.204,0.06 -0.27,0.158 -0.555,0.587 -0.85,1.01 -1.128,1.445 -1.215,1.582 -1.262,1.563 -1.358,1.462 -1.598,1.212 -1.846,0.97 -2.093,0.726 -2.294,0.528 -2.436,0.53 -2.637,0.73 -2.887,0.979 -3.142,1.223 -3.384,1.48 -3.488,1.591 -3.532,1.568 -3.606,1.453 -3.886,1.021 -4.178,0.595 -4.462,0.165 -4.558,0.019 -4.688,-0.046 -4.85,0.016 c -0.141,0.053 -0.226,0.167 -0.195,0.331 0.01,0.051 0.038,0.101 0.068,0.146 0.369,0.555 0.738,1.111 1.112,1.663 0.192,0.284 0.356,0.295 0.6,0.052 0.259,-0.258 0.522,-0.511 0.77,-0.778 0.103,-0.111 0.159,-0.09 0.251,0.007 0.261,0.272 0.53,0.537 0.799,0.801 0.209,0.206 0.39,0.187 0.553,-0.055 C -0.519,1.629 -0.147,1.074 0.224,0.52 0.302,0.403 0.351,0.279 0.269,0.146 0.208,0.046 0.118,-0.01 0,0" /></g><g
           transform="translate(17.7358,11.0605)"
           id="g104"><path
             id="path106"
             style="fill:#feac34;fill-opacity:1;fill-rule:nonzero;stroke:none"
             d="m 0,0 c 0.285,0 0.571,0.001 0.856,0 0.196,-0.001 0.339,-0.128 0.343,-0.3 0.003,-0.171 -0.136,-0.312 -0.333,-0.314 -0.576,-0.005 -1.154,-0.005 -1.731,0 -0.199,0.002 -0.323,0.133 -0.321,0.316 0.002,0.194 0.114,0.297 0.33,0.298 0.285,0.001 0.57,0 0.856,0" /></g><g
           transform="translate(11.6425,15.7031)"
           id="g108"><path
             id="path110"
             style="fill:#feac34;fill-opacity:1;fill-rule:nonzero;stroke:none"
             d="m 0,0 c -0.894,-0.003 -1.788,-0.003 -2.683,0 -0.252,0.001 -0.418,0.169 -0.419,0.405 0,0.232 0.168,0.381 0.435,0.382 0.451,0.002 0.9,0.001 1.351,0.001 0.438,0 0.876,0 1.314,-0.001 0.269,0 0.438,-0.157 0.439,-0.4 C 0.437,0.162 0.263,0.001 0,0 M 2.081,2.173 C 1.43,2.194 0.778,2.184 0.127,2.178 -0.047,2.176 -0.146,2.05 -0.145,1.876 -0.143,1.68 -0.008,1.569 0.245,1.568 0.799,1.565 1.353,1.566 1.907,1.567 2.016,1.567 2.108,1.548 2.17,1.443 2.305,1.212 2.167,0.998 1.864,0.989 1.579,0.981 1.292,0.992 1.006,0.985 0.9,0.982 0.824,1.013 0.751,1.091 0.554,1.304 0.302,1.39 0.015,1.389 -0.43,1.386 -0.875,1.388 -1.319,1.388 c -0.474,0 -0.95,0.005 -1.424,-0.002 -0.293,-0.003 -0.55,-0.104 -0.735,-0.34 -0.264,-0.336 -0.312,-0.707 -0.13,-1.093 0.182,-0.388 0.519,-0.557 0.929,-0.562 0.901,-0.012 1.802,-0.01 2.702,-0.002 0.502,0.005 0.917,0.333 1.008,0.815 C 1.066,0.395 1.157,0.406 1.302,0.389 1.563,0.358 1.823,0.361 2.083,0.404 2.502,0.473 2.833,0.821 2.838,1.278 2.842,1.715 2.474,2.16 2.081,2.173" /></g><g
           transform="translate(18.164,15.228)"
           id="g112"><path
             id="path114"
             style="fill:#feac34;fill-opacity:1;fill-rule:nonzero;stroke:none"
             d="m 0,0 c -0.243,-0.006 -0.486,-0.001 -0.729,-0.001 v -0.001 c -0.237,0 -0.474,-0.003 -0.711,0.001 -0.238,0.004 -0.459,0.206 -0.473,0.422 -0.011,0.189 0.193,0.407 0.427,0.422 0.509,0.032 1.02,0.033 1.529,-0.001 C 0.272,0.828 0.471,0.608 0.46,0.412 0.45,0.205 0.233,0.005 0,0 M 0.018,1.457 C -0.475,1.466 -0.967,1.462 -1.46,1.458 -1.983,1.453 -2.451,1.056 -2.495,0.588 -2.551,0.004 -2.24,-0.45 -1.689,-0.581 c 0.317,-0.075 0.641,-0.016 0.873,-0.033 0.338,0 0.587,-0.004 0.837,0 0.541,0.01 1.065,0.51 1.051,1.031 -0.016,0.579 -0.473,1.028 -1.054,1.04" /></g></g></g></g></svg>